<?xml version="1.0" encoding="utf-8"?>
<!-- Generator: Adobe Illustrator 17.0.0, SVG Export Plug-In . SVG Version: 6.00 Build 0)  -->
<!DOCTYPE svg PUBLIC "-//W3C//DTD SVG 1.1//EN" "http://www.w3.org/Graphics/SVG/1.1/DTD/svg11.dtd">
<svg version="1.1" id="Layer_1" xmlns="http://www.w3.org/2000/svg" xmlns:xlink="http://www.w3.org/1999/xlink" x="0px" y="0px"
	 width="429.502px" height="476px" viewBox="0 0 429.502 476" enable-background="new 0 0 429.502 476" xml:space="preserve">
<g id="XMLID_3_">
	<g id="XMLID_48_">
		<path id="XMLID_69_" fill="#B89B30" d="M118.389,391.516h-15.212l1.626-0.647c0.672-0.235,1.339-0.459,2.005-0.719
			c0.699-0.265,1.147-0.578,1.339-0.959c0.216-0.384,0.367-0.766,0.456-1.139c0.102-0.381,0.15-0.776,0.15-1.142
			c0-0.271-0.025-0.591-0.079-0.919c-0.049-0.369-0.084-0.686-0.128-0.999l-1.968-23.142c-0.667,1.163-1.775,3.198-3.353,6.173
			c-1.547,2.938-3.103,5.899-4.648,8.849c-1.42,2.756-2.827,5.504-4.24,8.227c-0.36,0.706-0.866,1.747-1.491,3.117
			c-0.734,1.585-1.297,2.823-1.664,3.699l-2.762-5.261c-2.158-4.203-4.261-8.182-6.328-11.925c-1.297-2.37-2.791-5-4.464-7.901
			c-1.447-2.508-2.165-3.768-2.19-3.81l-1.399,19.56c0,0.079-0.02,0.618-0.1,1.627c-0.074,0.989-0.106,1.641-0.106,2.007
			c0,0.613,0.032,1.181,0.106,1.713c0.086,0.509,0.231,0.955,0.425,1.294c0.198,0.342,0.633,0.655,1.309,0.93
			c0.687,0.273,1.348,0.54,1.996,0.788l1.38,0.578H66.29l0.836-0.391c0.981-0.421,1.706-0.746,2.166-0.936
			c0.844-0.4,1.343-0.793,1.545-1.186c0.198-0.388,0.35-1.192,0.477-2.402c0.149-1.229,0.207-2.471,0.207-3.71
			c0.386-3.288,0.706-7.087,0.975-11.408c0.286-4.331,0.435-7.567,0.435-9.684c0-1.392,0.01-3.002,0.047-4.863
			c0.044-1.865,0.079-2.942,0.079-3.209h2.844c0.276,0.863,0.511,1.573,0.679,2.083c0.288,0.856,0.592,1.626,0.913,2.323
			c1.095,2.35,2.69,5.485,4.82,9.463c1.846,3.446,3.79,6.947,5.823,10.481c1.882,3.278,3.113,5.32,3.682,6.105
			c0.654-1.127,1.769-3.15,3.297-6.073c0.741-1.434,2.24-4.331,4.488-8.694c1.698-3.332,3.367-6.526,4.974-9.577
			c0.481-0.918,0.939-1.903,1.408-2.99c0.539-1.297,0.976-2.35,1.306-3.121h2.675c0,1.293,0.056,2.568,0.164,3.827
			c0.124,1.211,0.244,2.461,0.379,3.731l2.154,24.52c0.074,0.692,0.155,1.312,0.239,1.828c0.107,0.504,0.262,0.957,0.452,1.371
			c0.22,0.408,0.96,0.871,2.235,1.366c0.579,0.256,1.179,0.472,1.752,0.697L118.389,391.516z"/>
		<path id="XMLID_66_" fill="#B89B30" d="M159.382,372.403c0,5.822-1.977,10.583-5.921,14.309
			c-3.817,3.571-8.534,5.358-14.146,5.358c-5.116,0-9.463-1.908-13.048-5.73c-3.566-3.821-5.339-8.474-5.339-13.937
			c0-5.294,1.798-9.876,5.432-13.684c3.608-3.813,7.956-5.729,13.005-5.729c5.553,0,10.198,1.7,13.98,5.106
			C157.363,361.73,159.382,366.51,159.382,372.403 M155.35,373.294c0-4.716-1.552-8.8-4.648-12.233
			c-3.154-3.479-6.949-5.218-11.388-5.218c-4.3,0-7.795,1.658-10.506,4.99c-2.574,3.153-3.852,6.985-3.852,11.489
			c0,4.331,1.38,8.186,4.147,11.591c2.904,3.571,6.391,5.362,10.473,5.362c4.332,0,8-1.417,11.02-4.282
			C153.766,381.968,155.35,378.067,155.35,373.294"/>
		<path id="XMLID_65_" fill="#B89B30" d="M202.607,353.727l-1.004,0.533c-0.32,0.152-0.915,0.371-1.832,0.664
			c-1.561,0.477-2.48,0.881-2.7,1.196c-0.207,0.312-0.384,1.041-0.504,2.156c-0.124,1.1-0.193,1.924-0.193,2.451v15.985
			c0,5.446-1.445,9.486-4.336,12.169c-2.472,2.254-5.787,3.39-9.934,3.39c-3.92,0-7.114-1.159-9.558-3.496
			c-2.83-2.663-4.243-6.467-4.243-11.448v-18.444v-0.507c0-0.174,0.021-0.376,0.033-0.55c0-0.409-0.033-0.761-0.098-1.064
			c-0.061-0.302-0.207-0.595-0.434-0.899c-0.234-0.292-1.103-0.706-2.625-1.233c-0.342-0.111-0.965-0.288-1.896-0.578l-1.119-0.326
			h16.539l-1.041,0.446c-0.316,0.133-0.935,0.298-1.838,0.582c-1.521,0.43-2.424,0.829-2.699,1.189
			c-0.274,0.378-0.466,0.777-0.532,1.158c-0.074,0.372-0.111,0.899-0.111,1.585v18.828c0,3.841,0.876,6.761,2.648,8.747
			c1.53,1.738,3.791,2.838,6.821,3.3c0.414,0.074,0.906,0.111,1.461,0.111c2.747,0,5.097-1.036,7.053-3.13
			c2.063-2.195,3.096-5.015,3.096-8.433v-19.024v-0.346c0-0.628-0.02-1.111-0.074-1.472c-0.054-0.349-0.226-0.733-0.509-1.115
			c-0.219-0.265-1.111-0.681-2.665-1.227c-0.874-0.302-1.482-0.532-1.841-0.707l-1.132-0.49H202.607z"/>
		<path id="XMLID_64_" fill="#B89B30" d="M248.892,353.727l-1.357,0.579c-0.802,0.325-1.375,0.601-1.715,0.766
			c-0.533,0.293-0.941,0.6-1.253,0.935c-0.312,0.315-0.502,1.18-0.573,2.606c-0.053,1.403-0.104,2.38-0.104,2.906v0.721
			c0,0.16,0.022,0.288,0.034,0.357v29.005h-2.354c-3.665-4.263-5.634-6.58-5.944-6.924c-0.498-0.546-1.299-1.44-2.453-2.677
			c-3.824-4.247-7.762-8.51-11.829-12.836c-3.898-4.14-6.703-7.077-8.475-8.831v22.134c0,0.424-0.014,0.808-0.034,1.174v1.063
			c0,1.287,0.056,2.264,0.127,2.928c0.119,0.67,0.247,1.174,0.418,1.483c0.158,0.315,0.428,0.607,0.823,0.845
			c0.408,0.229,1.225,0.596,2.461,1.051l1.363,0.504H205.28l0.824-0.391c0.699-0.326,1.398-0.634,2.074-0.936
			c0.778-0.4,1.261-0.814,1.482-1.241c0.226-0.45,0.36-1.338,0.389-2.687c0.039-1.36,0.069-2.594,0.069-3.715v-28.819h2.82
			c0.091,0.106,0.399,0.49,0.899,1.165c0.76,1.019,1.531,1.961,2.305,2.815c1.885,2.006,5.109,5.476,9.683,10.458
			c3.2,3.477,6.411,6.969,9.617,10.438c3.044,3.3,4.879,5.244,5.48,5.813v-21.738v-1.548c0-0.559,0.004-1.09,0.022-1.636
			c0-0.881-0.022-1.615-0.073-2.141c-0.036-0.548-0.102-0.934-0.23-1.201c-0.202-0.388-0.7-0.787-1.506-1.158
			c-0.997-0.378-1.72-0.682-2.17-0.884l-0.82-0.382H248.892z"/>
		<path id="XMLID_63_" fill="#B89B30" d="M278.644,364.154l-0.915-2.699c-0.28-0.89-0.57-1.806-0.848-2.716
			c-0.404-1.032-0.839-1.637-1.277-1.802c-0.456-0.19-0.872-0.297-1.275-0.317c-0.36-0.017-0.654-0.023-0.858-0.023h-0.317h-6.428
			v29.945c0,0.862,0.038,1.457,0.123,1.787c0.096,0.349,0.279,0.674,0.504,1.008c0.266,0.326,0.925,0.642,1.996,0.946
			c1.598,0.467,2.454,0.728,2.553,0.783l1.05,0.45H256.41l1.118-0.334c1.291-0.387,2.16-0.665,2.558-0.802
			c1.088-0.419,1.735-0.771,1.931-1.042c0.208-0.275,0.353-0.595,0.426-0.952c0.085-0.349,0.138-0.701,0.138-1.056
			c0-0.206-0.02-0.393-0.045-0.549v-0.44v-29.743l-7.548-0.058c-0.287,0-0.532,0.027-0.728,0.081
			c-0.17,0.037-0.372,0.127-0.584,0.261c-0.428,0.28-0.796,1.018-1.097,2.229c-0.443,1.75-0.729,2.781-0.852,3.1l-0.748,1.78
			l-0.022-11.113l2.043,0.85h23.078l2.521-1.021L278.644,364.154z"/>
		<path id="XMLID_60_" fill="#B89B30" d="M312.54,391.516h-14.442l1.247-0.524c0.645-0.242,1.281-0.501,1.947-0.761
			c0.776-0.376,1.235-0.782,1.36-1.255c0.071-0.265,0.021-0.72-0.166-1.424c-0.098-0.427-0.275-0.992-0.521-1.669l-3.313-9.569
			h-12.058l-3.45,9.587c-0.192,0.596-0.378,1.261-0.527,1.993c-0.17,0.697-0.206,1.137-0.17,1.298
			c0.129,0.353,0.54,0.683,1.199,0.959c0.704,0.273,1.401,0.554,2.067,0.809l1.298,0.557h-13.329l1.081-0.43
			c1.707-0.663,2.706-1.046,2.923-1.156c0.619-0.321,1.009-0.67,1.21-1.037c0.202-0.393,0.398-0.878,0.613-1.452
			c0.224-0.595,0.357-0.93,0.405-1.014c1.328-3.166,2.88-7.089,4.648-11.739c1.462-3.823,2.829-7.489,4.095-11.028
			c1.205-3.354,1.954-5.522,2.237-6.498c0.121-0.435,0.27-1.004,0.456-1.71c0.108-0.448,0.241-1.022,0.392-1.723h3.317l0.695,2.695
			c0.713,2.206,1.838,5.537,3.396,10.038c1.346,3.794,2.816,7.887,4.417,12.26c1.494,4.086,2.466,6.611,2.882,7.599
			c0.135,0.411,0.33,0.824,0.501,1.264c0.202,0.399,0.411,0.829,0.63,1.287c0.214,0.425,0.935,0.894,2.152,1.413
			c0.6,0.273,1.171,0.516,1.776,0.755L312.54,391.516z M297.519,373.687l-4.931-13.382l-4.954,13.382H297.519z"/>
		<path id="XMLID_59_" fill="#B89B30" d="M331.489,391.516h-16.535l1.122-0.334c1.269-0.392,2.128-0.665,2.567-0.812
			c1.117-0.409,1.742-0.75,1.939-1.004c0.202-0.283,0.337-0.59,0.405-0.92c0.086-0.334,0.137-0.67,0.137-1.031
			c0-0.23,0-0.423-0.025-0.589v-0.485v-27.451v-0.513c0-0.179,0.009-0.376,0.025-0.55c0-0.409-0.04-0.761-0.106-1.064
			c-0.057-0.302-0.185-0.595-0.436-0.899c-0.212-0.292-1.099-0.706-2.613-1.227c-0.34-0.116-0.963-0.302-1.892-0.583l-1.122-0.326
			h16.535l-1.047,0.431c-0.318,0.148-0.922,0.325-1.847,0.596c-1.501,0.43-2.406,0.834-2.69,1.182
			c-0.272,0.384-0.445,0.783-0.525,1.164c-0.086,0.372-0.116,0.899-0.116,1.585v27.856c0,0.674,0.03,1.206,0.116,1.594
			c0.081,0.399,0.229,0.776,0.508,1.137c0.277,0.367,0.965,0.706,2.028,1.009c1.604,0.489,2.436,0.755,2.527,0.783L331.489,391.516z
			"/>
		<path id="XMLID_58_" fill="#B89B30" d="M377.572,353.727l-1.371,0.579c-0.802,0.325-1.371,0.601-1.718,0.766
			c-0.504,0.293-0.917,0.6-1.241,0.935c-0.306,0.315-0.491,1.18-0.56,2.606c-0.073,1.403-0.104,2.38-0.104,2.906v0.721
			c0,0.16,0,0.288,0.026,0.357v29.005h-2.36c-3.65-4.263-5.627-6.58-5.926-6.924c-0.504-0.546-1.326-1.44-2.465-2.677
			c-3.829-4.247-7.768-8.51-11.849-12.836c-3.882-4.14-6.693-7.077-8.451-8.831v22.134c0,0.424-0.021,0.808-0.026,1.174v1.063
			c0,1.287,0.032,2.264,0.134,2.928c0.099,0.67,0.232,1.174,0.389,1.483c0.151,0.315,0.429,0.607,0.842,0.845
			c0.388,0.229,1.208,0.596,2.45,1.051l1.355,0.504h-12.735l0.819-0.391c0.7-0.326,1.399-0.634,2.08-0.936
			c0.776-0.4,1.257-0.814,1.471-1.241c0.25-0.45,0.375-1.338,0.405-2.687c0.036-1.36,0.051-2.594,0.051-3.715v-28.819h2.837
			c0.091,0.106,0.39,0.49,0.878,1.165c0.761,1.019,1.545,1.961,2.333,2.815c1.861,2.006,5.104,5.476,9.665,10.458
			c3.199,3.477,6.416,6.969,9.621,10.438c3.049,3.3,4.88,5.244,5.491,5.813v-21.738v-1.548c0-0.559,0-1.09,0.007-1.636
			c0-0.881-0.007-1.615-0.059-2.141c-0.052-0.548-0.134-0.934-0.25-1.201c-0.201-0.388-0.686-0.787-1.484-1.158
			c-1.018-0.378-1.745-0.682-2.181-0.884l-0.826-0.382H377.572z"/>
		<path id="XMLID_57_" fill="#B89B30" d="M185.884,411.107l-1.075,0.403c-1.111,0.344-1.928,0.637-2.486,0.849
			c-0.987,0.362-1.607,0.75-1.814,1.164c-0.305,0.563-0.502,0.966-0.63,1.205c-0.242,0.444-0.431,0.866-0.576,1.283
			c-0.382,0.801-1.369,3.517-2.992,8.158c-1.472,4.225-2.953,8.528-4.406,12.923c-1.525,4.561-2.45,7.36-2.751,8.36
			c-0.218,0.716-0.403,1.37-0.555,1.954c-0.226,0.83-0.404,1.483-0.512,1.983h-2.544c-0.428-1.053-0.852-2.126-1.26-3.204
			c-0.664-2.168-1.861-5.5-3.563-10.003c-1.319-3.539-2.894-7.613-4.691-12.21c-1.279-3.274-2.307-5.825-3.046-7.626
			c-0.153-0.403-0.305-0.824-0.487-1.254c-0.184-0.458-0.37-0.872-0.546-1.265c-0.188-0.393-0.911-0.849-2.207-1.398
			c-0.803-0.33-1.376-0.606-1.734-0.79l-0.981-0.531h14.465l-1.26,0.531c-0.661,0.216-1.291,0.473-1.933,0.721
			c-0.8,0.362-1.266,0.787-1.389,1.249c-0.079,0.259-0.019,0.739,0.165,1.455c0.104,0.42,0.283,0.974,0.527,1.675l9.7,25.647
			l9.054-25.668c0.197-0.546,0.349-1.131,0.457-1.769c0.141-0.636,0.158-1.041,0.116-1.205c-0.116-0.294-0.376-0.586-0.824-0.857
			c-0.433-0.308-1.265-0.711-2.52-1.223l-1.304-0.555H185.884z"/>
		<path id="XMLID_56_" fill="#B89B30" d="M205.128,448.888h-16.552l1.117-0.329c1.3-0.393,2.15-0.655,2.579-0.807
			c1.106-0.416,1.753-0.76,1.945-1.015c0.193-0.281,0.33-0.574,0.408-0.914c0.074-0.334,0.124-0.681,0.124-1.031
			c0-0.234-0.013-0.425-0.026-0.59v-0.483v-27.455v-0.514c0-0.174,0.012-0.367,0.026-0.553c0-0.409-0.038-0.753-0.098-1.063
			c-0.059-0.295-0.207-0.587-0.433-0.89c-0.226-0.293-1.093-0.719-2.618-1.223c-0.331-0.128-0.97-0.307-1.906-0.59l-1.117-0.322
			h16.552l-1.049,0.435c-0.325,0.137-0.934,0.312-1.838,0.582c-1.53,0.436-2.423,0.839-2.704,1.197
			c-0.285,0.383-0.465,0.765-0.532,1.164c-0.069,0.366-0.098,0.894-0.098,1.584v27.856c0,0.67,0.03,1.197,0.098,1.589
			c0.067,0.392,0.226,0.782,0.502,1.143c0.3,0.355,0.972,0.701,2.043,1.009c1.594,0.483,2.453,0.75,2.529,0.786L205.128,448.888z"/>
		<path id="XMLID_55_" fill="#B89B30" d="M233.722,440.63l-0.24,8.258h-25.914l1.136-0.329c1.28-0.393,2.136-0.664,2.565-0.807
			c1.113-0.416,1.755-0.755,1.945-1.015c0.213-0.281,0.359-0.601,0.398-0.973c0.078-0.371,0.115-0.775,0.115-1.232v-0.813v-27.65
			v-0.506c0-0.17,0-0.328,0.025-0.5c0-0.386-0.032-0.716-0.118-0.945c-0.037-0.276-0.184-0.546-0.42-0.839
			c-0.215-0.321-1.089-0.756-2.614-1.26c-0.335-0.123-0.965-0.307-1.896-0.59l-1.136-0.322h24.464l-0.022,8.341l-0.699-2.006
			c-0.367-1.128-0.584-1.739-0.635-1.847c-0.27-0.594-0.608-1.03-1.016-1.321c-0.41-0.287-0.848-0.452-1.363-0.531
			c-0.502-0.096-1.064-0.134-1.678-0.134h-5.985h-0.89c-0.425,0-0.75,0.028-1.004,0.084c-0.202,0.032-0.388,0.133-0.583,0.294
			c-0.093,0.132-0.184,0.325-0.214,0.595c-0.025,0.269-0.044,0.563-0.044,0.866v0.622v12.26h6.948c0.199,0,0.391,0.016,0.587,0.025
			h0.612c0.461,0,0.832-0.025,1.133-0.083c0.299-0.07,0.582-0.215,0.872-0.441c0.428-0.335,0.761-0.76,0.967-1.287l1.022-2.191
			v12.026l-0.434-1.184c-0.253-0.719-0.484-1.452-0.728-2.196c-0.295-0.824-0.662-1.36-1.083-1.598
			c-0.423-0.235-0.802-0.39-1.176-0.41c-0.359-0.071-0.873-0.095-1.55-0.095h-7.17v12.585c0,0.524,0.074,1.078,0.189,1.646
			c0.12,0.536,0.305,0.871,0.583,1.004c0.27,0.122,0.502,0.196,0.694,0.223c0.226,0.027,0.444,0.064,0.687,0.064h0.512
			c0.197,0,0.399-0.017,0.595-0.045h8.02c0.128,0,0.305,0.007,0.532,0.045c0.243,0.009,0.428,0.014,0.536,0.014
			c0.256,0,0.419-0.005,0.509-0.014c0.1-0.038,0.269-0.092,0.505-0.207c0.361-0.165,0.681-0.671,0.964-1.516
			c0.29-0.856,0.561-1.691,0.858-2.512L233.722,440.63z"/>
		<path id="XMLID_54_" fill="#B89B30" d="M296.829,411.107l-1.041,0.403c-1.109,0.344-1.946,0.637-2.495,0.849
			c-1.009,0.362-1.629,0.75-1.835,1.164c-0.321,0.563-0.514,0.966-0.645,1.205c-0.217,0.417-0.395,0.835-0.546,1.283
			c-0.389,0.825-1.343,3.517-2.86,8.061c-0.832,2.535-2.208,6.792-4.14,12.802c-1.597,5.023-2.49,7.808-2.655,8.364
			c-0.166,0.563-0.295,1.218-0.363,1.983c-0.065,0.743-0.128,1.467-0.18,2.168h-2.413l-1.009-3.204
			c-0.708-2.307-1.677-5.055-2.854-8.243c-0.984-2.614-2.106-5.511-3.375-8.745c-0.932-2.333-1.671-4.12-2.202-5.354l-1.599-3.661
			l-1.712,4.359c-0.171,0.462-0.801,2.311-1.87,5.554c-0.917,2.825-1.88,5.793-2.881,8.906c-1.208,3.752-1.854,5.862-2.005,6.347
			c-0.138,0.487-0.316,1.151-0.502,1.985c-0.07,0.251-0.202,0.957-0.462,2.058h-2.407l-0.955-3.204
			c-0.678-2.168-1.866-5.5-3.568-10.003c-1.334-3.539-2.885-7.613-4.691-12.21c-1.284-3.274-2.314-5.825-3.047-7.626
			c-0.151-0.403-0.325-0.824-0.469-1.254c-0.189-0.458-0.379-0.872-0.569-1.265c-0.186-0.393-0.91-0.849-2.202-1.398
			c-0.802-0.33-1.375-0.606-1.745-0.79l-0.97-0.531h14.848l-1.254,0.531c-0.719,0.244-1.407,0.509-2.094,0.763
			c-0.961,0.411-1.494,0.841-1.621,1.291c-0.025,0.188-0.05,0.379-0.05,0.559c0,0.425,0.035,0.898,0.134,1.429
			c0.093,0.51,0.209,0.967,0.344,1.338l9.699,24.111l8.181-23.802l2.48-7.339c0.368,1.234,0.73,2.498,1.109,3.784
			c0.385,1.27,0.826,2.477,1.298,3.603c0.817,1.929,2.024,4.9,3.621,8.948c1.778,4.449,2.854,7.126,3.228,8.036
			c1.034,2.513,1.931,4.56,2.697,6.148l8.079-23.893c0.215-0.654,0.399-1.282,0.527-1.86c0.132-0.595,0.16-0.983,0.086-1.148
			c-0.133-0.355-0.574-0.722-1.297-1.085c-0.201-0.095-0.862-0.388-2.023-0.861l-1.317-0.555H296.829z"/>
		<path id="XMLID_53_" fill="#B89B30" d="M306.65,213.095c19.353-8.271,30.03-24.079,31.03-44.546
			c-15.537,34.431-46.597,33.051-73.503,43.3c-25.755,9.821-32.16,26.151-33.781,34.129l-0.532,1.046
			c1.998-9.707,9.361-31.559,35.757-43.544c35.3-16.091,48.89-42.786,40.38-71.443c-3.386,39.244-33.426,44.916-56.086,64.89
			c-12.993,11.415-18.55,23.436-20.745,33.298l-0.068-14.018c2.834-13.636,9.705-29.638,24.774-44.688
			c37.599-37.379,42.942-77.672,19.532-109.854c13.055,51.283-17.169,66.719-36.978,102.956c-2.584,4.715-4.72,9.339-6.486,13.909
			c0.422-7.76,1.033-15.711,1.919-24.319c14.84-63.361,7.634-123.511-9.923-142.24c-17.584,18.729-24.789,78.879-9.921,142.24
			c0.891,8.608,1.484,16.559,1.924,24.319c-1.762-4.57-3.91-9.194-6.477-13.909c-19.856-36.237-50.054-51.674-36.995-102.956
			c-23.419,32.183-18.036,72.476,19.49,109.854c15.102,15.051,21.969,31.052,24.807,44.688l-0.047,14.018
			c-2.186-9.862-7.776-21.883-20.747-33.298c-22.666-19.974-52.707-25.647-56.133-64.89c-8.46,28.657,5.113,55.352,40.423,71.443
			c26.365,11.985,33.72,33.837,35.77,43.544l-0.563-1.046c-1.619-7.978-8.029-24.307-33.744-34.129
			c-26.923-10.249-57.962-8.869-73.545-43.3c1.004,20.467,11.702,36.275,31.055,44.546c-10.522,7.731-17.112,17.131-20.529,31.187
			c-5.138,21.193,9.041,44.06,29.175,49.773c8.032,2.258,16.387,1.149,23.582-3.155c7.242-4.306,14.629-14.202,16.814-22.592
			c1.791-6.912,0.886-14.126-2.523-20.332c-3.4-6.196-8.91-10.659-15.545-12.548c-11.305-3.199-24.583,6.585-26.303,18.707
			c-1.202,8.279,1.339,17.297,10.471,22.67c0,0-7.155-11.015-4.974-20.671c0.82-3.672,3.17-6.668,6.313-8.546
			c3.115-1.853,6.743-2.348,10.241-1.402c4.548,1.328,8.392,4.443,10.783,8.73c2.358,4.33,2.998,9.358,1.723,14.157
			c-1.62,6.265-7.835,14.028-13.23,17.267c-5.369,3.199-11.668,4.052-17.634,2.342c-7.761-2.158-14.214-7.397-18.235-14.646
			c-3.961-7.317-3.368-18.516-0.597-26.395c3.639-10.252,8.733-17.072,18.276-21.438c9.449-4.294,19.116-4.73,29.027-1.917
			c12.688,3.59,23.331,12.058,29.692,20.527c7.716,10.336,17.693,28.479,18.175,42.255v0.1c0-0.023,0.01-0.044,0.01-0.054
			c0,0.01,0,0.032,0,0.054v-0.1c0.465-13.776,10.443-31.919,18.175-42.255c6.345-8.47,16.979-16.937,29.673-20.527
			c9.937-2.813,19.592-2.377,29.018,1.917c9.572,4.367,14.655,11.187,18.254,21.438c2.796,7.878,3.436,19.078-0.595,26.395
			c-3.99,7.249-10.429,12.488-18.191,14.646c-5.981,1.71-12.264,0.857-17.658-2.342c-5.382-3.239-11.586-11.003-13.219-17.267
			c-1.242-4.8-0.635-9.827,1.714-14.157c2.375-4.287,6.242-7.402,10.806-8.73c3.488-0.946,7.126-0.451,10.261,1.402
			c3.107,1.878,5.474,4.874,6.295,8.546c2.186,9.656-5,20.671-5,20.671c9.164-5.373,11.676-14.391,10.487-22.67
			c-1.726-12.122-15.003-21.906-26.305-18.707c-6.611,1.889-12.126,6.352-15.546,12.548c-3.402,6.206-4.309,13.42-2.511,20.332
			c2.171,8.391,9.593,18.286,16.773,22.592c7.211,4.303,15.577,5.413,23.612,3.155c20.14-5.712,34.318-28.58,29.172-49.773
			C323.753,230.226,317.156,220.826,306.65,213.095z"/>
		<path id="XMLID_49_" fill="#B89B30" d="M207.474,322.789c1.018-0.421,3.239-0.711,5.818-0.711c3.541,0,6.412,0.545,6.412,1.22
			c0,0.696-2.871,1.245-6.412,1.245c-2.579,0-4.8-0.303-5.818-0.714l-6.884,0.866l-183.062-0.934l183.062-2.163L207.474,322.789z
			 M220.01,323.234c0-0.477,0.842-0.866,1.908-0.866c1.051,0,1.907,0.388,1.907,0.866c0,0.495-0.856,0.892-1.907,0.892
			C220.852,324.126,220.01,323.729,220.01,323.234 M243.235,324.846l-6.874-0.957c-1.024,0.441-3.245,0.733-5.799,0.733
			c-3.558,0-6.432-0.558-6.432-1.227c0-0.683,2.874-1.243,6.432-1.243c2.554,0,4.776,0.298,5.799,0.716l6.874-1.125l183.096,2.099
			L243.235,324.846z"/>
	</g>
</g>
</svg>
